<svg width="1024" height="1024" fill="none" xmlns="http://www.w3.org/2000/svg"><rect width="1024" height="1024" rx="512" fill="#000"/><path d="M284.192 203.6L287.552 278.48L278.433 275.12C281.953 247.92 291.072 228.24 305.792 216.08C320.513 203.92 339.233 197.84 361.952 197.84C389.473 197.84 410.912 206.48 426.272 223.76C441.952 241.04 449.792 264.56 449.792 294.32V458H377.312V318.32C377.312 303.6 376.032 291.76 373.473 282.8C371.233 273.84 367.233 267.12 361.473 262.64C355.713 257.84 348.032 255.44 338.432 255.44C323.072 255.44 311.392 260.72 303.393 271.28C295.713 281.84 291.872 297.52 291.872 318.32V458H218.912V203.6H284.192Z" fill="#fff"/><path d="M746.838 458L743.958 384.56L753.078 387.92C749.558 414.48 740.438 433.84 725.718 446C710.998 457.84 692.598 463.76 670.518 463.76C643.318 463.76 622.037 455.12 606.677 437.84C591.317 420.56 583.638 397.04 583.638 367.28V203.6H656.598V343.28C656.598 358 657.717 369.84 659.957 378.8C662.197 387.76 666.038 394.64 671.478 399.44C677.238 403.92 684.918 406.16 694.518 406.16C709.238 406.16 720.437 400.88 728.117 390.32C736.117 379.76 740.117 364.08 740.117 343.28V203.6H812.598V458H746.838Z" fill="#fff"/><path d="M454.293 563.6V890H381.333V765.2L387.572 769.04C383.413 780.88 377.493 790.96 369.812 799.28C362.133 807.28 353.013 813.36 342.453 817.52C331.893 821.68 320.212 823.76 307.412 823.76C284.372 823.76 264.532 818 247.892 806.48C231.572 794.64 219.252 778.8 210.932 758.96C202.932 738.8 198.932 716.08 198.932 690.8C198.932 665.52 202.932 642.96 210.932 623.12C219.252 602.96 231.572 587.12 247.892 575.6C264.532 563.76 284.372 557.84 307.412 557.84C327.253 557.84 344.053 562.48 357.812 571.76C371.573 581.04 381.653 594.48 388.053 612.08L382.773 616.4L384.693 563.6H454.293ZM379.893 730.16C384.053 718.32 386.133 705.2 386.133 690.8C386.133 676.72 384.053 663.92 379.893 652.4C375.733 640.56 369.333 631.12 360.693 624.08C352.373 616.72 342.133 613.04 329.973 613.04C311.733 613.04 297.653 620.56 287.732 635.6C278.132 650.32 273.332 668.72 273.332 690.8C273.332 713.2 278.132 731.76 287.732 746.48C297.653 761.2 311.733 768.56 329.973 768.56C342.133 768.56 352.373 765.04 360.693 758C369.333 750.96 375.733 741.68 379.893 730.16Z" fill="#fff"/><path d="M749.849 646.16C747.929 634.64 742.489 625.52 733.529 618.8C724.889 611.76 714.969 608.24 703.769 608.24C692.569 608.24 683.449 610.96 676.409 616.4C669.369 621.84 666.009 629.04 666.329 638C666.649 646.64 670.969 653.36 679.289 658.16C687.609 662.64 698.809 666.16 712.889 668.72C739.129 672.88 760.249 678.16 776.249 684.56C792.249 690.64 804.249 698.8 812.249 709.04C820.569 719.28 824.729 732.4 824.729 748.4C824.729 765.04 819.769 778.96 809.849 790.16C800.249 801.36 786.969 809.84 770.009 815.6C753.049 821.04 733.529 823.76 711.449 823.76C686.809 823.76 665.209 820.4 646.649 813.68C628.409 806.64 614.009 796.72 603.449 783.92C592.889 770.8 586.969 755.28 585.689 737.36L658.649 733.52C660.249 741.84 663.129 749.04 667.289 755.12C671.769 760.88 677.529 765.36 684.569 768.56C691.929 771.44 700.409 772.88 710.009 772.88C720.889 772.88 730.329 770.8 738.329 766.64C746.329 762.16 750.329 755.6 750.329 746.96C750.009 741.2 748.089 736.4 744.569 732.56C741.369 728.72 737.049 725.84 731.609 723.92C726.489 722 719.449 720.08 710.489 718.16C707.929 717.84 704.729 717.2 700.889 716.24C674.969 711.12 654.329 705.68 638.969 699.92C623.929 693.84 612.249 686 603.929 676.4C595.609 666.48 591.449 653.84 591.449 638.48C591.449 621.84 595.929 607.44 604.889 595.28C614.169 583.12 627.449 573.84 644.729 567.44C662.009 560.72 682.649 557.36 706.649 557.36C738.649 557.36 764.889 565.04 785.369 580.4C805.849 595.44 818.329 616.4 822.809 643.28L749.849 646.16Z" fill="#fff"/></svg>