<svg xmlns="http://www.w3.org/2000/svg" width="200" height="200" viewBox="0 0 200 200">
  <circle cx="100" cy="100" r="100" fill="#0A1A1E"/>
  <g transform="translate(49, 52) scale(3.92)">
    <path d="M5.37165 0.26416H7.49898C9.85309 0.26416 11.9945 1.58222 12.9922 3.64526L20.1242 18.3933C20.167 18.4818 20.2589 18.5384 20.36 18.5384C20.5037 18.5384 20.6202 18.4256 20.6202 18.2865V0.599466H25.8186V18.2865C25.8186 21.2034 23.3747 23.5679 20.36 23.5679C18.2411 23.5679 16.3137 22.3816 15.4157 20.5248L8.28372 5.77678C8.1412 5.48204 7.83525 5.29376 7.49898 5.29376H5.89149C5.50868 5.29376 5.19837 5.59398 5.19837 5.96437V17.8677C5.19837 18.3307 5.58626 18.706 6.06477 18.706H9.35707V23.7356H6.06477C2.71527 23.7356 0 21.1085 0 17.8677V5.46141H4.67854C5.06135 5.46141 5.37165 5.16118 5.37165 4.7908V0.26416Z" fill="#99B3B8"/>
  </g>
</svg>
