<svg width="1201" height="1200" viewBox="0 0 1201 1200" fill="none" xmlns="http://www.w3.org/2000/svg">
<title>Coderabbit Logo</title>
<path d="M600.867 1200C932.238 1200 1200.87 931.37 1200.87 600C1200.87 268.629 932.238 -0.000488281 600.867 -0.000488281C269.496 -0.000488281 0.867188 268.629 0.867188 600C0.867188 931.37 269.496 1200 600.867 1200Z" fill="#D75D2C"/>
<path d="M1008.3 500.615C1008.3 500.615 924.706 393.751 819.62 387.639C751.807 383.636 735.379 392.696 732.434 399.444C728.226 364.456 698.322 202.361 491.729 168.008C518.102 357.589 627.02 308.191 691.161 438.86C691.161 438.86 582.921 291.734 404.969 345.903C404.969 345.903 469.83 482.07 661.676 509.891C661.676 509.891 677.05 562.586 681.684 571.862C681.684 571.862 386.224 417.779 296.512 713.505C229.747 698.382 207.352 770.859 284.09 820.369C284.09 820.369 297.147 768.519 328.943 753.131C328.943 753.131 260.711 829.226 340.946 920.36H628.925C635.883 908.834 666.68 848.19 590.514 802.285C644.278 801.516 688.042 902.932 735.128 921.058H803.61C805.927 915.428 810.771 898.567 799.395 883.395C781.857 863.278 743.46 866.002 743.802 828.8C757.062 655.746 1016.55 708.888 1008.3 500.615Z" fill="#FEFEFE"/>
</svg>
