<svg xmlns="http://www.w3.org/2000/svg" fill="none" viewBox="0 0 1024 1024"><path fill="#000" d="M0 0h1024v1024H0z"/><path fill="#fff" d="m255.915 160.491 3.78 84.383-10.26-3.787q5.94-45.977 30.779-66.532T343.392 154q46.438 0 72.358 29.209 26.459 29.21 26.459 79.515v184.452h-81.537V289.77q0-24.882-4.32-40.028-3.78-15.146-13.5-22.718-9.72-8.114-25.919-8.114-25.92 0-39.419 17.85-12.96 17.85-12.96 53.01v157.406h-82.077V160.491zM776.375 447.176l-3.24-82.76 10.26 3.786q-5.94 44.896-30.779 65.451-24.84 20.014-62.099 20.014-45.899 0-71.817-29.209-25.92-29.21-25.92-79.515V160.491h82.078v157.406q0 24.882 3.78 40.028t12.959 23.259q9.72 7.573 25.92 7.573 24.839 0 37.799-17.85 13.499-17.85 13.499-53.01V160.491h81.538v286.685zM447.272 566.178V934h-82.078V793.362l7.02 4.327q-7.02 20.014-19.98 34.078-12.959 13.523-30.779 20.555-17.819 7.032-39.419 7.032-38.878 0-66.958-19.473-27.539-20.014-41.578-53.551-13.5-34.077-13.5-76.81 0-42.732 13.5-76.269 14.039-34.077 41.578-53.551 28.08-20.013 66.958-20.013 33.48 0 56.699 15.686t34.019 45.437l-5.94 4.868 2.16-59.5zm-83.698 187.697q7.02-20.013 7.02-44.355 0-23.8-7.02-43.273-7.02-20.014-21.599-31.914-14.04-12.441-34.559-12.441-30.78 0-47.519 25.423-16.2 24.882-16.199 62.205 0 37.864 16.199 62.746 16.74 24.882 47.519 24.882 20.519 0 34.559-11.9 14.579-11.9 21.599-31.373M779.762 659.215q-3.239-19.473-18.359-30.832-14.58-11.9-33.479-11.9t-30.779 9.195-11.34 24.341q.54 14.605 14.58 22.719 14.04 7.572 37.799 11.9 44.278 7.032 71.278 17.85 26.999 10.278 40.498 27.587Q864 747.383 864 774.43q0 28.127-16.74 47.06-16.199 18.932-44.818 28.668-28.62 9.195-65.878 9.196-41.579 0-72.898-11.36-30.78-11.9-48.599-33.536-17.819-22.178-19.979-52.469l82.077-4.328q2.7 14.064 9.72 24.342 7.56 9.736 19.44 15.145 12.419 4.869 28.619 4.869 18.359 0 31.859-7.032 13.5-7.573 13.499-22.178-.54-9.736-6.479-16.227-5.4-6.491-14.58-9.737-8.64-3.245-23.759-6.491-4.32-.54-10.8-2.163-43.738-8.655-69.658-18.392-25.379-10.277-39.419-26.504-14.039-16.768-14.039-42.733 0-28.127 15.119-48.682 15.66-20.555 44.819-31.373 29.159-11.36 69.658-11.359 53.999 0 88.557 25.964 34.56 25.422 42.119 70.859z"/></svg>